<?xml version="1.0" encoding="iso-8859-1"?>
<!-- Generator: Adobe Illustrator 19.0.0, SVG Export Plug-In . SVG Version: 6.00 Build 0)  -->
<svg version="1.1" id="Capa_1" xmlns="http://www.w3.org/2000/svg" xmlns:xlink="http://www.w3.org/1999/xlink" x="0px" y="0px"
	 viewBox="0 0 512 512" style="enable-background:new 0 0 512 512;" xml:space="preserve">
<g>
	<g>
		<path d="M451.494,190.46c7.794-13.905,5.06-31.169-6.65-41.985c-4.906-4.532-7.143-11.415-5.837-17.964
			c3.116-15.632-4.82-31.207-19.298-37.875c-6.066-2.793-10.32-8.649-11.102-15.281c-1.868-15.83-14.228-28.191-30.058-30.057
			c-6.632-0.782-12.487-5.037-15.281-11.103c-6.668-14.478-22.245-22.412-37.874-19.298c-6.551,1.306-13.433-0.932-17.964-5.837
			c-10.815-11.709-28.082-14.442-41.985-6.65c-5.826,3.265-13.063,3.266-18.888,0c-13.905-7.792-31.168-5.059-41.985,6.65
			c-4.531,4.905-11.414,7.146-17.964,5.837c-15.633-3.113-31.206,4.82-37.875,19.298c-2.793,6.066-8.649,10.32-15.28,11.102
			c-15.83,1.867-28.191,14.227-30.058,30.058c-0.782,6.632-5.037,12.487-11.102,15.28c-14.478,6.668-22.415,22.243-19.298,37.875
			c1.306,6.55-0.931,13.433-5.837,17.964c-11.709,10.815-14.444,28.081-6.65,41.985c3.266,5.826,3.266,13.062,0,18.888
			c-7.794,13.905-5.06,31.169,6.65,41.985c4.906,4.532,7.143,11.414,5.837,17.963c-3.116,15.632,4.82,31.207,19.298,37.875
			c6.066,2.794,10.32,8.65,11.102,15.282c1.553,13.163,10.365,23.922,22.392,28.249L72.914,459.019
			c-1.165,2.385-0.981,5.208,0.481,7.423c1.462,2.215,3.98,3.509,6.637,3.357l50.735-2.566l29.19,41.578
			c1.411,2.009,3.707,3.19,6.137,3.19c0.197,0,0.395-0.008,0.593-0.023c2.646-0.209,4.984-1.802,6.148-4.187l52.827-108.23
			c7.026,0.847,14.334-0.484,20.894-4.162c5.825-3.265,13.061-3.266,18.888,0c5.296,2.968,11.077,4.41,16.806,4.409
			c1.504,0,3.002-0.11,4.488-0.307l52.857,108.29c1.164,2.385,3.502,3.978,6.148,4.187c0.198,0.016,0.396,0.023,0.593,0.023
			c2.43,0,4.726-1.181,6.137-3.19l29.19-41.578l50.735,2.566c2.642,0.138,5.175-1.143,6.637-3.357
			c1.463-2.215,1.646-5.038,0.481-7.423L386.58,350.567c11.839-4.412,20.489-15.085,22.026-28.116
			c0.782-6.632,5.037-12.487,11.102-15.281c14.478-6.668,22.415-22.243,19.298-37.875c-1.306-6.55,0.931-13.432,5.837-17.964
			c11.709-10.815,14.444-28.081,6.65-41.985C448.228,203.523,448.228,196.285,451.494,190.46z M164.93,489.789l-24.267-34.565
			c-1.481-2.109-3.935-3.319-6.517-3.181l-42.178,2.134l48.516-99.397c3.571,1.971,6.505,5.049,8.248,8.833
			c3.563,7.738,9.672,13.602,16.972,16.915l-16.037,32.855c-1.817,3.722-0.272,8.212,3.45,10.029
			c1.059,0.517,2.18,0.762,3.284,0.762c2.776,0,5.445-1.548,6.746-4.212l17.766-36.399c1.887-0.06,3.79-0.272,5.694-0.651
			c6.551-1.308,13.433,0.931,17.964,5.837c2.077,2.249,4.394,4.164,6.878,5.739L164.93,489.789z M420.461,454.177l-42.179-2.133
			c-2.578-0.144-5.036,1.071-6.517,3.181l-24.267,34.565l-46.623-95.518c2.36-1.535,4.567-3.374,6.553-5.524
			c4.531-4.906,11.414-7.142,17.964-5.837c2.051,0.409,4.101,0.622,6.13,0.661l17.762,36.39c1.3,2.663,3.968,4.211,6.745,4.211
			c1.104,0,2.226-0.245,3.285-0.762c3.722-1.817,5.267-6.307,3.45-10.029l-16.116-33.018c7.144-3.34,13.114-9.14,16.621-16.752
			c1.798-3.904,4.867-7.05,8.592-9.01L420.461,454.177z M434.668,240.314c-8.716,8.05-12.688,20.279-10.369,31.914
			c1.754,8.8-2.713,17.566-10.862,21.319c-10.776,4.963-18.334,15.365-19.724,27.148c-1.051,8.911-8.009,15.868-16.919,16.919
			c-11.782,1.39-22.185,8.948-27.148,19.724c-3.753,8.15-12.52,12.619-21.32,10.862c-11.633-2.317-23.865,1.654-31.914,10.37
			c-6.088,6.592-15.806,8.131-23.633,3.744c-5.176-2.901-10.976-4.352-16.778-4.352c-5.801,0-11.604,1.451-16.778,4.351
			c-7.827,4.387-17.545,2.848-23.633-3.743c-8.05-8.715-20.28-12.688-31.914-10.37c-8.799,1.755-17.566-2.713-21.319-10.862
			c-4.963-10.776-15.365-18.334-27.148-19.724c-8.911-1.051-15.868-8.009-16.919-16.919c-1.39-11.782-8.948-22.185-19.724-27.149
			c-8.15-3.753-12.616-12.519-10.862-21.319c2.319-11.635-1.654-23.864-10.369-31.914c-6.591-6.088-8.131-15.806-3.744-23.633
			c5.802-10.349,5.802-23.207,0-33.557c-4.388-7.827-2.848-17.544,3.743-23.633c8.716-8.05,12.688-20.279,10.37-31.914
			c-1.754-8.799,2.713-17.566,10.862-21.319c10.776-4.963,18.334-15.365,19.724-27.148c1.051-8.912,8.009-15.868,16.919-16.919
			c11.782-1.39,22.186-8.948,27.148-19.724c3.753-8.15,12.518-12.616,21.32-10.862c11.64,2.32,23.864-1.655,31.914-10.37
			c6.088-6.591,15.807-8.132,23.633-3.743c10.349,5.801,23.207,5.801,33.556,0c7.827-4.389,17.544-2.849,23.633,3.743
			c8.05,8.715,20.277,12.689,31.914,10.37c8.803-1.756,17.565,2.714,21.319,10.862c4.963,10.776,15.365,18.334,27.148,19.724
			c8.911,1.051,15.868,8.009,16.919,16.919c1.39,11.782,8.948,22.186,19.724,27.148c8.15,3.753,12.616,12.52,10.862,21.319
			c-2.319,11.635,1.654,23.864,10.37,31.914c6.591,6.088,8.131,15.806,3.744,23.633c-5.802,10.352-5.802,23.21,0,33.558
			C442.798,224.508,441.258,234.226,434.668,240.314z"/>
	</g>
</g>
<g>
	<g>
		<path d="M375.72,167.844c0-12.978-10.556-23.534-23.532-23.534H301.12c4.309-8.058,9.909-19.822,14.511-33.827
			c3.515-10.691-2.391-22.312-13.161-25.902l-0.462-0.154c-9.87-3.293-20.728,1.371-25.257,10.845
			c-6.622,13.861-21.364,38.439-46.283,49.039h-4.893c-4.316-4.909-10.634-8.016-17.669-8.016h-32.062
			c-12.975,0-23.531,10.556-23.531,23.531v112.22c0,12.975,10.556,23.531,23.531,23.531h32.062c7.035,0,13.353-3.107,17.669-8.016
			h102.567c12.975,0,23.531-10.556,23.531-23.531c0-4.368-1.196-8.462-3.278-11.97c6.768-4.137,11.293-11.596,11.293-20.092
			c0-4.368-1.196-8.462-3.278-11.97c6.768-4.137,11.293-11.596,11.293-20.092c0-4.368-1.196-8.462-3.278-11.97
			C371.194,183.799,375.72,176.339,375.72,167.844z M352.188,176.372h-24.047c-4.142,0-7.5,3.358-7.5,7.5s3.358,7.5,7.5,7.5h16.031
			c4.705,0,8.532,3.828,8.532,8.532c0,4.704-3.828,8.532-8.532,8.532h-24.047c-4.142,0-7.5,3.358-7.5,7.5s3.358,7.5,7.5,7.5h16.031
			c4.705,0,8.532,3.828,8.532,8.532s-3.828,8.532-8.532,8.532H312.11c-4.142,0-7.5,3.358-7.5,7.5s3.358,7.5,7.5,7.5h16.031
			c4.705,0,8.532,3.828,8.532,8.532c0,4.704-3.828,8.532-8.532,8.532h-96.704v-72.657c0-4.142-3.358-7.5-7.5-7.5s-7.5,3.358-7.5,7.5
			v72.141c0,4.705-3.828,8.532-8.532,8.532h-32.062c-4.705,0-8.532-3.828-8.532-8.532V159.825c0-4.705,3.828-8.532,8.532-8.532
			h32.062c4.705,0,8.532,3.828,8.532,8.532v8.015c0,4.142,3.358,7.5,7.5,7.5s7.5-3.358,7.5-7.5v-8.531h0.516
			c0.954,0,1.899-0.182,2.786-0.537c30.439-12.176,47.868-40.961,55.546-57.035c1.271-2.661,4.274-3.982,6.977-3.083l0.463,0.155
			c2.96,0.986,4.601,4.122,3.658,6.991c-7.978,24.274-19.447,41.682-19.559,41.85c-1.535,2.301-1.677,5.26-0.373,7.699
			c1.305,2.438,3.847,3.961,6.613,3.961h64.126c4.705,0,8.532,3.828,8.532,8.532S356.893,176.372,352.188,176.372z"/>
	</g>
</g>
<g>
	<g>
		<circle cx="192" cy="256.017" r="7.5"/>
	</g>
</g>
<g>
</g>
<g>
</g>
<g>
</g>
<g>
</g>
<g>
</g>
<g>
</g>
<g>
</g>
<g>
</g>
<g>
</g>
<g>
</g>
<g>
</g>
<g>
</g>
<g>
</g>
<g>
</g>
<g>
</g>
</svg>
